<svg width="56" height="60" viewBox="0 0 56 60" fill="none" xmlns="http://www.w3.org/2000/svg">
<path d="M48.8924 7.08005H37.1823C35.0663 7.08505 35.1455 9.42507 37.1823 9.41131H48.8924V10.6076H37.1823C35.0781 10.5938 35.1556 12.9326 37.1823 12.9388H48.8924V14.1613H37.1823C35.0781 14.1613 35.1556 16.4989 37.1823 16.4926H48.8924V17.6576H37.1823C35.1219 17.6689 35.1556 20.0089 37.1823 20.0164H48.8924V21.1839H37.1823C35.1219 21.1789 35.1135 23.5152 37.1823 23.5152H48.8924V24.6802H37.1823C35.1219 24.6852 35.1135 27.0239 37.1823 27.0127H48.8924V28.2064H37.1823C35.1219 28.1927 35.1135 30.529 37.1823 30.5377H48.8924V31.7002H37.1823C35.1219 31.699 35.1556 34.0402 37.1823 34.0327H48.8924V56.7316C48.8991 60.1904 55.9798 60.1279 56 56.7316V3.61252C55.9798 2.03251 54.2311 0.0350002 51.3537 0.0287502H37.1823C35.0663 0.0300002 35.1455 2.37002 37.1823 2.36002L48.8924 2.38877V3.55127H37.1823C35.0697 3.54377 35.1489 5.88254 37.1823 5.88379H48.8924V7.08005ZM36.377 47.3228C36.3703 43.2853 30.73 38.9428 23.9913 41.7553V26.3127L19.6331 0.843756C19.5421 0.170001 18.7722 0.0112501 18.255 0C17.721 0.0112501 16.6512 0.170001 16.535 0.843756L12.1987 26.3127V41.7553C5.46 38.9428 0.00168467 43.3128 0 47.2916C0.00168467 50.8316 3.67426 53.7391 8.64402 53.7304C13.6509 53.7391 17.2527 50.4804 17.2527 47.2916V31.2502H18.9373V47.2916C18.9373 50.8616 22.6638 53.5041 26.8047 53.6716C26.7357 55.6291 27.5965 58.4217 29.2172 59.5292C31.1175 60.8292 33.38 59.1667 32.4517 57.8129C31.5555 56.5529 30.6761 55.8066 31.3904 53.0554C34.3756 52.0304 36.3703 49.8728 36.377 47.3228ZM8.83607 50.4991C6.48428 50.4878 4.58398 49.0728 4.58061 47.3228C4.58398 45.5741 6.48428 44.1528 8.83607 44.1428C11.171 44.1528 13.073 45.5741 13.0899 47.3228C13.073 49.0741 11.171 50.4891 8.83607 50.4991ZM23.2754 47.3228C23.2905 45.5741 25.1891 44.1528 27.5308 44.1428C29.8759 44.1528 31.7779 45.5741 31.7846 47.3228C31.7779 49.0728 29.8776 50.4878 27.5308 50.4991C25.1891 50.4891 23.2888 49.0741 23.2754 47.3228Z" fill="#EDE6D5"/>
</svg>
