<svg width="106" height="106" viewBox="0 0 106 106" fill="none" xmlns="http://www.w3.org/2000/svg">
<path d="M39.7056 105.882H4.41174C3.24167 105.882 2.11953 105.418 1.29217 104.591C0.464807 103.763 0 102.642 0 101.472C0 100.302 0.464807 99.1802 1.29217 98.3531C2.11953 97.526 3.24167 97.0613 4.41174 97.0613H39.7056C40.8757 97.0613 41.9978 97.526 42.8252 98.3531C43.6525 99.1802 44.1174 100.302 44.1174 101.472C44.1174 102.642 43.6525 103.763 42.8252 104.591C41.9978 105.418 40.8757 105.882 39.7056 105.882ZM30.8821 88.2402H4.41174C3.24167 88.2402 2.11953 87.7755 1.29217 86.9484C0.464807 86.1213 0 84.9994 0 83.8297C0 82.6599 0.464807 81.5381 1.29217 80.711C2.11953 79.8838 3.24167 79.4192 4.41174 79.4192H30.8821C32.0522 79.4192 33.1744 79.8838 34.0017 80.711C34.8291 81.5381 35.2939 82.6599 35.2939 83.8297C35.2939 84.9994 34.8291 86.1213 34.0017 86.9484C33.1744 87.7755 32.0522 88.2402 30.8821 88.2402ZM22.0587 70.5981H4.41174C3.24167 70.5981 2.11953 70.1334 1.29217 69.3063C0.464807 68.4791 0 67.3573 0 66.1876C0 65.0178 0.464807 63.896 1.29217 63.0688C2.11953 62.2417 3.24167 61.777 4.41174 61.777H22.0587C23.2287 61.777 24.3509 62.2417 25.1782 63.0688C26.0056 63.896 26.4704 65.0178 26.4704 66.1876C26.4704 67.3573 26.0056 68.4791 25.1782 69.3063C24.3509 70.1334 23.2287 70.5981 22.0587 70.5981ZM57.3526 105.684C56.1825 105.736 55.0397 105.321 54.1755 104.531C53.3113 103.741 52.7966 102.639 52.7445 101.47C52.6924 100.3 53.1073 99.1573 53.8979 98.2934C54.6884 97.4295 55.7899 96.9149 56.9599 96.8628C65.3089 96.0991 73.2674 92.9729 79.9033 87.8503C86.5391 82.7277 91.5776 75.8208 94.4284 67.9386C97.2793 60.0565 97.8246 51.5254 96.0005 43.3446C94.1763 35.1638 90.0582 27.6719 84.1285 21.7466C78.1989 15.8213 70.7031 11.7078 62.5192 9.88786C54.3353 8.06797 45.8022 8.61704 37.9192 11.4708C30.0362 14.3245 23.1298 19.3647 18.0088 26.0011C12.8879 32.6375 9.76444 40.5953 9.00435 48.9424C8.95221 49.5193 8.78692 50.0802 8.51793 50.5932C8.24893 51.1063 7.88149 51.5613 7.43659 51.9324C6.99169 52.3034 6.47805 52.5832 5.92498 52.7558C5.37191 52.9284 4.79025 52.9904 4.21321 52.9383C3.63617 52.8862 3.07505 52.7209 2.56189 52.452C2.04873 52.1831 1.59357 51.8158 1.22241 51.371C0.851254 50.9262 0.571359 50.4127 0.398708 49.8598C0.226058 49.3069 0.164033 48.7254 0.216175 48.1485C1.44656 34.5786 7.86438 22.0059 18.1337 13.0476C28.403 4.08917 41.7326 -0.564676 55.3477 0.0547724C68.9628 0.674221 81.8144 6.51924 91.2273 16.3731C100.64 26.227 105.889 39.3305 105.882 52.956C105.949 66.1802 101.035 78.9454 92.1166 88.7122C83.1981 98.479 70.9289 104.532 57.7496 105.666C57.6173 105.679 57.4805 105.684 57.3526 105.684ZM52.9408 26.4928C51.7708 26.4928 50.6486 26.9574 49.8213 27.7846C48.9939 28.6117 48.5291 29.7335 48.5291 30.9033V52.956C48.5293 54.1256 48.9943 55.2473 49.8217 56.0742L63.0569 69.3058C63.889 70.1092 65.0034 70.5538 66.1602 70.5437C67.3169 70.5337 68.4234 70.0698 69.2414 69.2521C70.0594 68.4343 70.5233 67.3281 70.5334 66.1717C70.5434 65.0153 70.0988 63.9011 69.2951 63.0693L57.3526 51.13V30.9033C57.3526 29.7335 56.8878 28.6117 56.0604 27.7846C55.233 26.9574 54.1109 26.4928 52.9408 26.4928Z" fill="#2C5E42"/>
</svg>
