<svg width="54" height="62" viewBox="0 0 54 62" fill="none" xmlns="http://www.w3.org/2000/svg">
<path d="M36.7223 25.9582C39.6968 27.9705 45.4262 27.3544 49.782 21.8543C54.1024 16.4012 55.736 8.42696 51.6513 3.10009L51.6545 3.09798C51.6352 3.07551 51.5657 2.98791 51.5479 2.96438C51.5479 2.96438 51.5479 2.96649 51.5447 2.96649C47.3277 -2.18781 41.0118 -0.126793 36.6899 5.32648C32.3339 10.8266 31.8459 18.0595 33.439 21.8144C33.0286 24.8893 29.6872 28.2254 26.6901 30.3905C24.3788 28.5905 21.464 25.4095 21.1578 19.014C21.3792 16.4593 20.7127 13.8046 19.1641 11.8494C19.022 11.67 18.6131 11.2334 18.6131 11.2334L7.32248 0.132326L6.29397 1.42968L18.5452 15.9391L17.2164 17.6167L5.34723 2.63188L4.2574 4.00665L16.1249 18.9924L15.0028 20.4089L3.13531 5.42742L2.1424 6.66965L13.9388 21.5627L12.5873 23.2751L1.12529 7.95665L0 9.38145L9.36948 24.2856C9.36948 24.2856 9.59254 24.5742 9.68696 24.6802C11.0506 26.1845 12.7625 26.8943 14.4565 26.8343C14.4686 26.8343 14.4864 26.8383 14.4928 26.8404C18.9538 26.8966 21.7103 30.3203 23.444 33.2738C19.202 38.6319 6.03712 55.2535 6.03712 55.2535L6.04032 55.2575C6.02739 55.2698 6.01042 55.284 5.99749 55.3004C4.92546 56.6527 4.92546 58.8475 5.99749 60.204C6.05242 60.2712 6.25921 60.5303 6.31177 60.5997C7.38381 61.9541 9.12487 61.9541 10.1952 60.6018C10.2082 60.5855 10.2194 60.5651 10.23 60.5468L10.2332 60.5528C10.2332 60.5528 22.4586 45.1183 27.1459 39.2032C31.6068 44.8327 43.972 60.4387 43.972 60.4387L43.9752 60.4347C43.9848 60.449 43.9897 60.4692 44.0059 60.4898C45.0593 61.8175 46.7786 61.8175 47.8335 60.4857C48.8886 59.1517 48.8918 56.9897 47.835 55.6536C47.819 55.6353 47.8029 55.6292 47.79 55.6109L47.793 55.6069C47.793 55.6069 34.1354 38.3672 30.3465 33.58C32.0575 30.059 34.4779 26.4354 36.7223 25.9582ZM35.2713 15.6597C35.3358 14.7448 35.4813 13.6924 35.722 12.5787C35.8496 12.025 35.9998 11.4548 36.1826 10.8786C36.3845 10.2933 36.5963 9.74854 36.9064 9.17851C37.4993 8.08427 38.2215 7.23353 38.9406 6.51973C39.6515 5.79661 40.3738 5.23466 41.0151 4.80841C41.6517 4.37392 42.222 4.0925 42.6292 3.93134C43.0428 3.76 43.2835 3.73753 43.2835 3.73753C43.2835 3.73753 43.0848 3.9273 42.7876 4.27806C42.4871 4.63093 42.0589 5.13688 41.5436 5.74254C40.5547 6.96037 39.1458 8.54107 38.1472 10.2605C37.9065 10.6532 37.6917 11.1712 37.5042 11.6454C37.3006 12.1299 37.1196 12.6306 36.9549 13.1262C36.6123 14.1114 36.3295 15.0659 36.0856 15.8891C35.8481 16.7142 35.6623 17.4117 35.5525 17.9075C35.4329 18.4041 35.449 18.6989 35.4685 18.6989C35.4589 18.7173 35.3117 18.4317 35.2682 17.8839C35.2147 17.3424 35.2034 16.5724 35.2713 15.6597Z" fill="#EDE6D5"/>
</svg>
