<svg width="63" height="61" viewBox="0 0 63 61" fill="none" xmlns="http://www.w3.org/2000/svg">
<path d="M61.811 27.8046L34.2472 1.11706C33.4784 0.372672 32.4704 0 31.4633 0C30.4562 0 29.4482 0.372672 28.6794 1.11706L1.11558 27.8046C-0.42209 29.2972 -0.345305 31.6323 1.19236 33.1211C2.73396 34.6175 4.9873 34.8377 6.52989 33.3441L7.87461 32.0412V57.1875C7.87461 59.2949 9.63574 61 11.8123 61H27.563V45.75H35.4384V61H51.1891C53.3657 61 55.1268 59.2949 55.1268 57.1875V32.1155L56.3032 33.2545C57.8409 34.7433 60.1907 34.6099 61.7333 33.1201C63.2719 31.6323 63.3526 29.2933 61.811 27.8046Z" fill="#EDE6D5"/>
</svg>
