<svg width="47" height="56" viewBox="0 0 47 56" fill="none" xmlns="http://www.w3.org/2000/svg">
<path d="M0 11.9149V52.1157C0 53.8672 1.47893 56 3.29979 56H43.0144C44.8305 56 46.6275 53.8672 46.6275 52.1157V11.9149H0ZM23.2659 43.8182C16.2598 43.8182 10.5796 38.3445 10.5796 31.59C10.5796 24.8354 16.2598 19.3617 23.2659 19.3617C30.272 19.3617 35.9522 24.8354 35.9522 31.59C35.9522 38.3457 30.272 43.8182 23.2659 43.8182ZM43.0144 0H3.29979C1.47893 0 0 1.23081 0 2.98468V9.53191H46.6275V2.98468C46.6275 1.23081 44.8305 0 43.0144 0ZM15.5425 7.14894H2.39115V2.38298H15.5425V7.14894ZM38.433 6.81532C36.9397 6.81532 35.7334 5.64885 35.7334 4.20834C35.7334 2.77021 36.9397 1.60374 38.433 1.60374C39.9263 1.60374 41.1362 2.77021 41.1362 4.20834C41.135 5.64766 39.9263 6.81532 38.433 6.81532Z" fill="#EDE6D5"/>
</svg>
