<svg width="106" height="106" viewBox="0 0 106 106" fill="none" xmlns="http://www.w3.org/2000/svg">
<path d="M103.982 62.4689L96.7804 55.1286C95.5651 53.8874 93.914 53.1893 92.1931 53.1893C90.4733 53.1893 88.8233 53.8863 87.6047 55.1286L77.6304 65.298C76.7013 64.2118 75.548 63.3966 74.2854 62.8673L62.6882 57.4249L57.1165 52.6348L47.541 62.3426L37.9418 52.6348L32.3701 57.4249L20.7718 62.8673C19.0565 63.5872 17.5338 64.8272 16.5134 66.5747L0 94.7142H54.2457L63.2998 103.944C64.5139 105.184 66.1661 105.882 67.8859 105.882C69.6069 105.882 71.258 105.186 72.4766 103.944L81.5273 94.7142H95.0572L89.9935 86.0845L103.982 71.8219C106.516 69.2385 106.516 65.0523 103.982 62.4689ZM67.8161 98.7144L46.0476 76.5225L53.2478 69.1834L67.8172 84.0373L92.1244 59.2551L99.3235 66.5954L67.8161 98.7144Z" fill="#2C5E42"/>
<path d="M47.4667 53.8057V53.8103C47.4768 53.8103 47.4892 53.808 47.4994 53.808C47.505 53.808 47.514 53.8103 47.5219 53.8103C47.5219 53.8103 47.5264 53.8103 47.5298 53.8103C47.5332 53.8103 47.5377 53.8103 47.5377 53.8103C47.5455 53.8103 47.5546 53.808 47.5602 53.808C47.5715 53.808 47.5827 53.8103 47.5929 53.8103V53.8057C61.1137 54.0158 69.3321 41.952 69.5439 22.0633C69.679 8.26571 61.286 0.376601 47.6154 0.00459271V0C47.594 0 47.5793 0.00229632 47.5579 0.00229632V0C47.5455 0 47.5365 -2.96736e-08 47.5287 0.00229632C47.5196 -2.96736e-08 47.5084 0 47.4994 0V0.00229632C47.478 0.00229632 47.4622 0 47.4442 0V0.00459271C33.7735 0.376601 25.3783 8.26571 25.5146 22.0633C25.7274 41.9531 33.9458 54.0158 47.4667 53.8057Z" fill="#2C5E42"/>
</svg>
