<svg width="48" height="62" viewBox="0 0 48 62" fill="none" xmlns="http://www.w3.org/2000/svg">
<path d="M47.0958 11.8738C46.931 10.8202 46.7015 10.285 46.7015 10.285C46.6308 10.0005 46.4396 9.79096 46.2087 9.74414C45.9762 9.69731 45.7437 9.8209 45.6069 10.0641L44.992 11.1589L41.5187 17.3642C40.8479 18.5581 39.4783 18.7751 38.4588 17.8489L32.6097 12.525C31.5916 11.5988 31.3092 9.87899 31.9815 8.68507L35.5386 2.33006L36.1226 1.29339C36.258 1.05195 36.2756 0.731942 36.1682 0.47002C36.0594 0.206181 35.8445 0.043303 35.6107 0.0471354C35.6107 0.0471354 35.059 -0.072628 34.1764 0.0696509C31.9565 0.430857 29.7939 1.60598 27.9844 3.62327C25.4321 6.46765 24.0904 10.4179 24.0154 14.4189C23.9919 15.6258 24.8495 20.8655 22.609 23.7155C20.3685 26.5655 1.43987 50.6415 1.43987 50.6415C-0.479958 53.0854 -0.479958 57.0452 1.43987 59.4871C3.36112 61.9292 6.47403 61.9292 8.39377 59.4871C8.39377 59.4871 27.786 34.8197 29.5631 32.5592C31.3402 30.2986 36.2669 29.6287 37.2437 29.4603C39.4327 29.0841 41.56 27.9127 43.3459 25.9217C46.5926 22.3025 47.8814 16.8982 47.0958 11.8738ZM3.3244 57.0919C2.40351 55.9205 2.40351 54.0248 3.3244 52.8533C4.24388 51.6837 5.73551 51.6819 6.65499 52.8533C7.57588 54.0229 7.57588 55.9203 6.65499 57.0919C5.73551 58.2615 4.24378 58.2615 3.3244 57.0919Z" fill="#EDE6D5"/>
</svg>
