<svg width="67" height="69" viewBox="0 0 67 69" fill="none" xmlns="http://www.w3.org/2000/svg">
<path d="M45.6175 68.6279C47.9079 68.6279 49.7646 66.7076 49.7646 64.3387C49.7646 61.9698 47.9079 60.0494 45.6175 60.0494C43.3272 60.0494 41.4705 61.9698 41.4705 64.3387C41.4705 66.7076 43.3272 68.6279 45.6175 68.6279Z" fill="#EDE6D5"/>
<path d="M29.0293 68.6279C31.3196 68.6279 33.1763 66.7076 33.1763 64.3387C33.1763 61.9698 31.3196 60.0494 29.0293 60.0494C26.7389 60.0494 24.8822 61.9698 24.8822 64.3387C24.8822 66.7076 26.7389 68.6279 29.0293 68.6279Z" fill="#EDE6D5"/>
<path d="M65.571 23.2263C64.7893 22.1078 63.538 21.4462 62.2057 21.4462H19.6746L16.5198 3.52254C16.1631 1.48301 14.4462 0 12.4411 0H4.14705C1.85477 0 0 1.91837 0 4.28925C0 6.66013 1.85477 8.57849 4.14705 8.57849H8.97836L16.6566 52.2377C17.0133 54.2772 18.7301 55.7602 20.7352 55.7602H53.9116C55.698 55.7602 57.2811 54.5785 57.8441 52.8285L66.1382 27.093C66.5632 25.7859 66.3486 24.3447 65.571 23.2263Z" fill="#EDE6D5"/>
</svg>
