<svg width="106" height="106" viewBox="0 0 106 106" fill="none" xmlns="http://www.w3.org/2000/svg">
<path d="M52.9412 0C23.6994 0 0 23.6994 0 52.9412C0 82.1829 23.6994 105.882 52.9412 105.882C82.1829 105.882 105.882 82.1829 105.882 52.9412C105.882 23.6994 82.1829 0 52.9412 0ZM75.3171 34.9494C82.1829 34.9494 87.7665 39.5818 87.7665 45.2895H82.8033C82.8033 42.3943 79.3704 39.9127 75.3171 39.9127C71.2638 39.9127 67.8309 42.3943 67.8309 45.2895H62.8676C62.8676 39.5818 68.4513 34.9494 75.3171 34.9494ZM30.5653 34.9494C37.4311 34.9494 43.0147 39.5818 43.0147 45.2895H38.0515C38.0515 42.3943 34.6186 39.9127 30.5653 39.9127C26.5119 39.9127 23.079 42.3943 23.079 45.2895H18.1158C18.1572 39.5818 23.7408 34.9494 30.5653 34.9494ZM89.7932 73.1664L87.6425 71.057C78.4191 81.1489 66.2178 86.7325 53.1893 86.7325C40.0368 86.7325 27.7528 81.0662 18.5294 70.8088L16.1305 73.1664L12.9458 69.8989L23.2445 59.8483L26.4292 63.1158L24.7335 64.8116C32.3437 73.4145 42.477 78.1296 53.2307 78.1296C63.9016 78.1296 73.9108 73.4972 81.5211 65.0597L79.5358 63.1158L82.7206 59.8483L93.0193 69.8989L89.7932 73.1664Z" fill="#2C5E42"/>
</svg>
