<svg width="18" height="22" viewBox="0 0 18 22" fill="none" xmlns="http://www.w3.org/2000/svg">
<path fill-rule="evenodd" clip-rule="evenodd" d="M1.5 0C0.67157 0 0 0.792609 0 1.77035V19.4738C0 20.4515 0.67157 21.2442 1.5 21.2442H16.5C17.3284 21.2442 18 20.4515 18 19.4738V1.77035C18 0.792609 17.3284 0 16.5 0H1.5ZM5.52076 4.72414C5.52639 5.85274 4.81061 6.54815 3.96123 6.54317C3.16107 6.53819 2.46357 5.78635 2.46779 4.7258C2.47201 3.72832 3.13998 2.92668 4.00764 2.94992C4.88795 2.97316 5.52639 3.73496 5.52076 4.72414ZM9.2797 7.98045H6.75971H6.7583V18.083H9.4217V17.8474C9.4217 17.399 9.4214 16.9505 9.4211 16.5019C9.4203 15.3054 9.4194 14.1076 9.4246 12.9114C9.426 12.6209 9.4372 12.3189 9.5005 12.0417C9.7381 11.006 10.5271 10.3372 11.4074 10.5016C11.9727 10.606 12.3467 10.9928 12.5042 11.6219C12.6013 12.0151 12.6449 12.4384 12.6491 12.8484C12.6605 14.0848 12.6589 15.3212 12.6573 16.5577C12.6567 16.9942 12.6561 17.4309 12.6561 17.8673V18.0814H15.328V17.8391C15.328 17.3056 15.3278 16.7723 15.3275 16.2389C15.327 14.9059 15.3264 13.5728 15.3294 12.2392C15.3308 11.6367 15.276 11.0426 15.1508 10.46C14.9638 9.59364 14.5771 8.87665 13.9485 8.35888C13.5027 7.9904 13.0133 7.75307 12.4663 7.72651C12.404 7.72345 12.3412 7.71945 12.2781 7.71543C11.9984 7.69758 11.7141 7.67945 11.4467 7.7431C10.6817 7.92401 10.0096 8.33728 9.5019 9.06584C9.4429 9.1494 9.3852 9.23426 9.2991 9.3609L9.2797 9.38958V7.98045ZM2.68164 18.0864H5.33242V7.98702H2.68164V18.0864Z" fill="#EDE6D5"/>
</svg>
