<svg width="106" height="106" viewBox="0 0 106 106" fill="none" xmlns="http://www.w3.org/2000/svg">
<path fill-rule="evenodd" clip-rule="evenodd" d="M72.9443 51.0024H99.3672C102.949 51.0024 105.882 53.6564 105.882 56.8963V81.0576C105.882 84.2974 102.949 86.9514 99.3672 86.9514H72.9443C62.0188 86.9514 53.0746 78.8603 53.0746 68.9769C53.0842 59.0849 62.0093 51.0024 72.9443 51.0024ZM42.9874 17.3455L47.3119 21.042L56.6752 12.4512C57.5039 11.6929 58.0182 11.0897 59.0374 12.029L62.3332 15.0879C63.419 16.053 63.3619 16.6217 62.3427 17.5264L49.1979 28.7454C47.0452 30.6583 47.4167 30.7703 45.2354 28.8143L37.4438 22.2742C36.9866 21.8262 37.0342 21.3781 37.539 20.93L41.3682 17.3369C41.9301 16.794 42.3874 16.8285 42.9874 17.3455ZM10.4588 22.6189H27.3185C27.2899 22.1881 27.2708 21.7572 27.2708 21.3178C27.2804 9.54733 37.8248 0 50.8457 0C63.8572 0 74.4111 9.54733 74.4111 21.3178C74.4111 21.7486 74.3921 22.1795 74.373 22.6103L80.574 22.6017C86.9082 22.5931 92.09 27.0824 92.09 32.8125V34.5186C95.2142 36.3884 97.2812 39.5939 97.2812 43.2129V46.9698H89.9658V44.4623C89.9658 41.7653 87.5274 39.568 84.5555 39.568H17.2598V34.1136C17.2598 33.3898 17.9171 32.7953 18.7172 32.7953H30.9857C30.176 31.6579 29.4902 30.4429 28.9282 29.1676H12.0876C9.99208 29.1676 8.28706 30.7186 8.28706 32.6057V95.189C8.28706 97.0847 10.0016 98.6271 12.0876 98.6271H86.0986C88.1941 98.6271 89.8991 97.0761 89.8991 95.189V91.2511H97.405V97.7568H97.386C97.3574 102.255 92.0518 105.882 86.813 105.882H10.4302C4.69606 105.874 0.00012207 101.626 0.00012207 96.4384V32.0801C0.00012207 26.8756 4.70558 22.6189 10.4588 22.6189ZM72.7537 29.159C72.1918 30.4343 71.506 31.6492 70.6963 32.7866H85.7461C86.1653 32.7866 86.5748 32.8039 86.9844 32.847V32.5971C86.9844 30.7014 85.2699 29.159 83.1839 29.159H72.7537ZM73.9444 57.5856H97.386V80.3682H73.9444C67.0196 80.3682 61.3521 75.2413 61.3521 68.9769C61.3521 62.7039 67.0196 57.5856 73.9444 57.5856ZM79.7072 65.2028C82.0789 65.2028 84.003 66.9434 84.003 69.0889C84.003 71.2345 82.0789 72.9751 79.7072 72.9751C77.3354 72.9751 75.4113 71.2345 75.4113 69.0889C75.4113 66.9434 77.3354 65.2028 79.7072 65.2028Z" fill="#2C5E42"/>
</svg>
