<svg width="21" height="17" viewBox="0 0 21 17" fill="none" xmlns="http://www.w3.org/2000/svg">
<path d="M19.607 2.60006C19.4931 2.1013 19.2705 1.64644 18.9614 1.28076C18.6522 0.91508 18.2673 0.651332 17.845 0.51577C16.279 0.00827035 10.014 8.96565e-06 10.014 8.96565e-06C10.014 8.96565e-06 3.75 -0.0082529 2.183 0.476823C1.76093 0.618623 1.37682 0.8861 1.06757 1.25357C0.758311 1.62105 0.534287 2.07618 0.417002 2.57528C0.00400165 4.42352 1.46514e-06 8.25692 1.46514e-06 8.25692C1.46514e-06 8.25692 -0.00399852 12.1092 0.406001 13.9386C0.636001 14.95 1.311 15.749 2.169 16.0217C3.751 16.5292 9.999 16.5374 9.999 16.5374C9.999 16.5374 16.264 16.5457 17.83 16.0618C18.2525 15.9265 18.6377 15.6633 18.9477 15.2984C19.2576 14.9335 19.4814 14.4794 19.597 13.981C20.011 12.134 20.014 8.30177 20.014 8.30177C20.014 8.30177 20.034 4.44831 19.607 2.60006ZM8.01 11.8082L8.015 4.72684L13.222 8.27344L8.01 11.8082Z" fill="#EDE6D5"/>
</svg>
